Coordinates
version=1
nRows=19
nColumns=24
inDegrees=yes

Units are S.I. units (second, meters, Newtons, ...)
Angles are in degrees.

endheader
time	pelvis_tilt	pelvis_list	pelvis_rotation	pelvis_tx	pelvis_ty	pelvis_tz	hip_flexion_r	hip_adduction_r	hip_rotation_r	knee_angle_r	ankle_angle_r	subtalar_angle_r	mtp_angle_r	hip_flexion_l	hip_adduction_l	hip_rotation_l	knee_angle_l	ankle_angle_l	subtalar_angle_l	mtp_angle_l	lumbar_extension	lumbar_bending	lumbar_rotation
      5.91000000	      1.34520239	      7.91628296	     10.91666394	     -2.59697199	      0.88023246	      0.19544019	     15.88430433	    -10.73522588	     -4.73234963	     -1.80342644	      6.87018806	      7.26449632	      0.00000000	    -12.59028413	     10.21356251	     26.30850878	    -14.21936728	     17.65737628	     -7.08316060	      0.00000000	    -27.71917420	     -4.64292992	    -19.84877411
      5.92000000	      1.33608541	      7.82697437	     11.01373623	     -2.58731268	      0.87968632	      0.19643754	     15.92339671	    -10.49628719	     -4.13630816	     -2.76674272	      6.42676812	      6.61963379	      0.00000000	    -12.83870076	     10.00637882	     26.13757493	    -14.95460926	     17.61016700	     -6.56153294	      0.00000000	    -27.59446707	     -4.54547917	    -19.58934928
      5.93000000	      1.37669903	      7.74410783	     10.99734515	     -2.57747159	      0.87932506	      0.19763600	     15.90510900	    -10.19119698	     -3.18985506	     -3.80262522	      5.74532542	      5.55732861	      0.00000000	    -13.11067816	      9.81826193	     25.82629614	    -15.73135492	     17.38885360	     -6.05030663	      0.00000000	    -27.52025114	     -4.48875193	    -19.21768044
      5.94000000	      1.42092732	      7.64840975	     10.94232824	     -2.56747422	      0.87913985	      0.19893502	     15.86161151	     -9.82718053	     -2.03643805	     -4.86376127	      4.90963365	      4.20782050	      0.00000000	    -13.33320418	      9.62682661	     25.38679315	    -16.58958784	     17.03217460	     -5.44583336	      0.00000000	    -27.44585253	     -4.43236816	    -18.81269336
      5.95000000	      1.50303345	      7.49636403	     10.80123246	     -2.55725655	      0.87918411	      0.20042903	     15.78392997	     -9.33726054	     -0.79074586	     -5.94062147	      4.01949608	      2.74125226	      0.00000000	    -13.54096503	      9.37614611	     24.73169205	    -17.49885379	     16.53896969	     -4.72464284	      0.00000000	    -27.38657307	     -4.33818307	    -18.33505969
      5.96000000	      1.62722842	      7.26087405	     10.59344783	     -2.54681027	      0.87947730	      0.20203712	     15.65231753	     -8.71154715	      0.46550202	     -6.99622786	      3.17921084	      1.30319362	      0.00000000	    -13.71370318	      9.03693136	     23.79877490	    -18.49008880	     15.90015779	     -3.87580593	      0.00000000	    -27.33380221	     -4.14465109	    -17.83956670
      5.97000000	      1.75935359	      7.06307550	     10.39871872	     -2.53631827	      0.88000386	      0.20375039	     15.46341983	     -8.10170317	      1.79947191	     -8.00078267	      2.47750134	     -0.24789205	      0.00000000	    -13.78763734	      8.72048196	     22.65701638	    -19.64337815	     15.06642408	     -2.78159952	      0.00000000	    -27.32084355	     -4.00232893	    -17.40059152
      5.98000000	      1.84941996	      6.82857613	     10.19953300	     -2.52570847	      0.88066750	      0.20549654	     15.27997763	     -7.44218401	      3.11431818	     -8.95041462	      1.88065718	     -1.90698956	      0.00000000	    -13.71045899	      8.37464215	     21.42397420	    -20.94381163	     14.01476143	     -1.62630506	      0.00000000	    -27.24317604	     -3.82462911	    -16.96308869
      5.99000000	      2.00044426	      6.55525314	      9.97158297	     -2.51496090	      0.88154775	      0.20726064	     14.98996249	     -6.73635144	      4.21088966	     -9.84850420	      1.63049137	     -3.22553843	      0.00000000	    -13.55269293	      7.96349451	     19.86547186	    -22.43496705	     12.79143364	     -0.28096890	      0.00000000	    -27.20285076	     -3.57811697	    -16.54237910
      6.00000000	      2.20762015	      6.33045405	      9.77642451	     -2.50422882	      0.88263479	      0.20897179	     14.58167819	     -6.10808018	      4.98168554	    -10.70019655	      1.82955257	     -4.06570263	      0.00000000	    -13.30295674	      7.56674015	     18.18536863	    -24.15216392	     11.35575511	      1.21539090	      0.00000000	    -27.24851185	     -3.35673671	    -16.24156608
      6.01000000	      2.26758332	      6.05664342	      9.59622562	     -2.49347525	      0.88361768	      0.21070732	     14.22074610	     -5.43965764	      5.91929939	    -11.36247174	      1.87563640	     -5.40199025	      0.00000000	    -12.71280886	      7.13969937	     16.44162620	    -26.13140899	      9.69535517	      2.57106871	      0.00000000	    -27.09273555	     -3.11400625	    -15.87716350
      6.02000000	      2.43064181	      5.84590343	      9.53435073	     -2.48286831	      0.88481456	      0.21222540	     13.66251975	     -4.90044970	      6.33849277	    -11.94264363	      2.43067708	     -6.00348552	      0.00000000	    -12.05117527	      6.72334602	     14.80343711	    -28.38748535	      7.86286503	      3.95323479	      0.00000000	    -27.08653299	     -2.86997432	    -15.74174587
      6.03000000	      2.40295498	      5.61833241	      9.47784261	     -2.47243371	      0.88576052	      0.21375439	     13.22452736	     -4.36645459	      6.92629368	    -12.35262564	      2.82564608	     -6.95639703	      0.00000000	    -10.97610496	      6.33511027	     13.21059984	    -30.94201931	      5.83671508	      5.00343010	      0.00000000	    -26.86570106	     -2.65611686	    -15.52241033
      6.04000000	      2.51191110	      5.36576865	      9.59804204	     -2.46213319	      0.88690232	      0.21498131	     12.51789462	     -3.86383207	      7.00186544	    -12.58297997	      3.49147267	     -7.40017040	      0.00000000	     -9.87309451	      5.87481088	     11.90488893	    -33.73653070	      3.71815438	      5.79455341	      0.00000000	    -26.80411074	     -2.32677147	    -15.46657254
      6.05000000	      2.45725152	      5.10791110	      9.80588501	     -2.45225911	      0.88777034	      0.21607583	     11.94590849	     -3.39754825	      7.10204401	    -12.71050703	      4.04312887	     -7.95973663	      0.00000000	     -8.38111201	      5.47972624	     10.87106970	    -36.82111969	      1.50567386	      6.17198995	      0.00000000	    -26.61777075	     -1.99266217	    -15.42226263
      6.06000000	      2.37001715	      4.87932111	     10.11978538	     -2.44260462	      0.88851945	      0.21704290	     11.32926521	     -2.99134013	      7.07193068	    -12.69654984	      4.67262492	     -8.44368811	      0.00000000	     -6.71684173	      5.14793918	     10.09294483	    -40.06330143	     -0.78904862	      6.15232060	      0.00000000	    -26.40419312	     -1.71599454	    -15.49576838
      6.07000000	      2.35573553	      4.58298445	     10.52125690	     -2.43321064	      0.88926567	      0.21779644	     10.58869266	     -2.52617756	      6.89264440	    -12.55847893	      5.25166131	     -8.84482425	      0.00000000	     -5.00514235	      4.79657941	      9.58645280	    -43.40756789	     -3.13107256	      5.63796460	      0.00000000	    -26.29410491	     -1.30376627	    -15.55034964
      6.08000000	      2.27975339	      4.24279126	     10.99620003	     -2.42403992	      0.88982967	      0.21840581	      9.88422513	     -2.04101188	      6.61738460	    -12.31976564	      5.77423569	     -9.17812493	      0.00000000	     -3.12620020	      4.47174577	      9.27277711	    -46.79316096	     -5.49600332	      4.71955070	      0.00000000	    -26.10656612	     -0.85456266	    -15.66096679
      6.09000000	      2.31867621	      3.89833708	     11.50429867	     -2.41508640	      0.89045735	      0.21888223	      9.02766693	     -1.53599504	      6.29451875	    -11.98699508	      6.23108687	     -9.51648699	      0.00000000	     -1.33965060	      4.20945746	      9.16748175	    -50.08874526	     -7.89163686	      3.29090530	      0.00000000	    -26.08118194	     -0.38082484	    -15.67170255
